<?xml version="1.0" ?><!DOCTYPE svg  PUBLIC '-//W3C//DTD SVG 1.0//EN'  'http://www.w3.org/TR/2001/REC-SVG-20010904/DTD/svg10.dtd'><svg enable-background="new 0 0 512 512" id="Layer_1" version="1.0" viewBox="0 0 512 512" xml:space="preserve" xmlns="http://www.w3.org/2000/svg" xmlns:xlink="http://www.w3.org/1999/xlink"><g><g><g><g><path d="M183.9,387.3c-8.8,23-30.9,38.4-55.8,38.4s-47-15.4-55.8-38.4H183.9z" fill="#736357"/><g><path d="M176.6,385.3c-7.8,19.9-27.4,32.6-48.5,32.9c-21.1,0.3-40.8-13.4-48.5-32.9c-2.4,3.2-4.8,6.3-7.2,9.5       c37.2,0,74.3,0,111.5,0c9.7,0,9.7-15,0-15c-37.2,0-74.3,0-111.5,0c-4.5,0-9.1,4.9-7.2,9.5c10.3,26.2,34.6,43.6,63,43.9       c28.2,0.3,52.8-18.2,63-43.9c1.5-3.8-1.6-8.2-5.2-9.2C181.6,378.9,178.1,381.5,176.6,385.3z"/></g></g><g><g><path d="M496.8,304.8c-19.5-45.9-39-91.8-58.5-137.7c-4.4-10.3-8.7-20.5-13.1-30.8c-1.6-3.8-7.1-4.6-10.3-2.7       c-3.9,2.3-4.3,6.5-2.7,10.3c19.5,45.9,39,91.8,58.5,137.7c4.4,10.3,8.7,20.5,13.1,30.8c1.6,3.8,7.1,4.6,10.3,2.7       C498,312.8,498.4,308.5,496.8,304.8L496.8,304.8z"/></g></g><g><g><path d="M359.3,140.1c0.5,5.9,3,11.6,4.9,17.2c3.6,10.8,7.2,21.5,10.8,32.3c5.4,16.2,10.8,32.4,16.2,48.7       c1.7-3.1,3.5-6.2,5.2-9.2c-30,8.1-55.7,26.2-74,51.2c-20.2,27.7-28.1,64.8-24.5,98.5c2.5-2.5,5-5,7.5-7.5c-7.5,0-14.9,0-22.4,0       c2.5,2.5,5,5,7.5,7.5c1.6-11.8,2.1-23.6,1.6-35.5c-0.4-9.6-15.4-9.7-15,0c0.5,11.9,0,23.7-1.6,35.5c-0.5,4.1,3.8,7.5,7.5,7.5       c7.5,0,14.9,0,22.4,0c3.8,0,7.9-3.4,7.5-7.5c-3.3-30.7,3.2-62.7,20.6-88.4c15.6-23.1,40-39.6,66.8-46.8c3.8-1,6.5-5.4,5.2-9.2       c-5.2-15.6-10.4-31.2-15.6-46.8c-3.6-10.7-7.1-21.4-10.7-32.1c-1.2-3.6-2.4-7.2-3.6-10.8c-0.5-1.4-1.3-3-1.4-4.5       C373.6,130.5,358.6,130.4,359.3,140.1L359.3,140.1z"/></g></g><g><path d="M494.7,366c0,33-26.7,59.7-59.7,59.7c-27.8,0-51.2-19.1-57.8-44.9l32.4-12.3c1.3,13,12.2,23.1,25.5,23.1      c14.1,0,25.6-11.4,25.6-25.6c0-5.4-1.7-10.7-4.9-15l27.3-10.4l5.1-1.9C492.3,346.8,494.7,356.1,494.7,366z" fill="#736357"/><g><path d="M487.2,366c-0.3,26-19,47.2-44.5,51.7c-26.3,4.6-51.6-13.8-58.3-38.8c-1.7,3.1-3.5,6.2-5.2,9.2       c10.8-4.1,21.6-8.2,32.4-12.3c-3.2-2.4-6.3-4.8-9.5-7.2c2.6,20.9,22.2,35.3,43,29c21-6.4,29.3-32.5,17.1-50.3       c-1.5,3.7-3,7.3-4.5,11c10.8-4.1,21.6-8.2,32.4-12.3c-2.8-1.1-5.6-2.3-8.5-3.4C485.3,349.8,487.1,357.7,487.2,366       c0.1,9.7,15.1,9.7,15,0c-0.2-11-2.7-21.3-7.6-31.1c-1.4-2.8-5.5-4.6-8.5-3.4c-10.8,4.1-21.6,8.2-32.4,12.3       c-4.2,1.6-7.5,6.7-4.5,11c6.9,10,3.9,24-8.1,28.3c-10.5,3.8-22.6-3.3-24-14.5c-0.6-4.4-4.5-9.1-9.5-7.2       c-10.8,4.1-21.6,8.2-32.4,12.3c-3.8,1.5-6.4,5-5.2,9.2c8.9,33.1,41.5,54.6,75.4,49.5c32.6-4.9,56.5-33.7,56.9-66.3       C502.3,356.3,487.3,356.3,487.2,366z"/></g></g><g><path d="M197.8,283.3H106C27.2,307.3,8.8,387.3,8.8,387.3H239C239,387.3,263.6,307.3,197.8,283.3z" fill="#6FCCDD"/><g><path d="M197.8,275.8c-24.9,0-49.8,0-74.7,0c-4.9,0-9.8,0-14.8,0c-6.8,0-13.3,3.2-19.4,5.9c-19.2,8.2-36.4,20.7-50.4,36.2       c-16.8,18.6-31.2,42.8-36.9,67.5c-1.1,4.7,2.2,9.5,7.2,9.5c47.3,0,94.5,0,141.8,0c29.5,0,58.9,0,88.4,0c3.4,0,6.3-2.3,7.2-5.5       c4.5-14.8,5.8-31.5,4.2-46.8c-1.4-13.3-5.2-26.2-12.5-37.5c-9.1-13.9-22.8-23.3-38.1-29c-9.1-3.4-13,11.1-4,14.5       c12.4,4.6,23.2,12.5,30.2,23.8c6,9.6,8.8,21.1,9.7,31.8c0.4,5,0.4,10,0.1,15.1c-0.3,5.2-0.7,7.9-1.3,11.9       c-0.7,4.1-1.5,8.3-2.7,12.3c2.4-1.8,4.8-3.7,7.2-5.5c-47.3,0-94.5,0-141.8,0c-29.5,0-58.9,0-88.4,0c2.4,3.2,4.8,6.3,7.2,9.5       c1.4-6,3.6-11.8,5.9-17.5c0.9-2.1-0.6,1.4,0.3-0.8c0.3-0.7,0.6-1.3,0.9-2c0.6-1.4,1.3-2.8,2-4.2c1.6-3.3,3.3-6.6,5.1-9.9       c3.9-6.9,8.3-13.6,13.2-19.8c12.4-15.6,27.8-28.2,45.5-37.1c4.8-2.4,9.8-4.4,14.9-6.1c0.9-0.3,3.2-1.1,2.4-1.1c0.5,0,1,0,1.4,0       c4.6,0,9.2,0,13.8,0c25.4,0,50.9,0,76.3,0C207.4,290.8,207.4,275.8,197.8,275.8z"/></g></g><g><path d="M435,103.3V123c0,9.2-7.2,16.7-16.3,17c-0.3,0-0.5,0-0.7,0h-51.2c-9.4,0-17-7.6-17-17.1v-4.4      c0-7.5,4.9-14.2,12.1-16.3L413.1,87c5.2-1.5,10.8-0.6,15.1,2.7C432.5,92.9,435,97.9,435,103.3z" fill="#EC2127"/><g><path d="M427.5,103.3c0,6.1,0,12.2,0,18.2c0,6.2-3.6,11-10.2,11c-13.5,0-26.9,0-40.4,0c-4.4,0-9.3,0.6-13.5-0.6       c-7.9-2.3-7.9-15.2-3.2-20.2c2.7-2.9,8.6-3.7,12.2-4.8c7.4-2.2,14.8-4.4,22.2-6.7c5.9-1.8,11.9-3.6,17.8-5.3       c1.4-0.4,2.7-0.8,4.1-1.2C422.4,92.4,427.3,98.1,427.5,103.3c0.4,9.6,15.4,9.7,15,0c-0.6-14.2-11.9-25.3-26.3-24.5       c-4.8,0.3-9.8,2.3-14.4,3.7c-13.4,4-26.8,8-40.1,12c-8.8,2.6-15,8-18.3,16.7c-3.6,9.5-0.6,22,6,29.1       c9.6,10.4,28.7,7.2,41.4,7.2c7.1,0,14.2,0,21.4,0c5.7,0,11.3,0.1,16.6-2.6c16.3-8.2,13.6-26.5,13.6-41.7       C442.5,93.6,427.5,93.6,427.5,103.3z"/></g></g><g><path d="M460.6,366c0,14.1-11.5,25.6-25.6,25.6c-13.3,0-24.2-10.1-25.5-23.1v0l46.1-17.6      C458.9,355.3,460.6,360.6,460.6,366z" fill="#544741"/><g><path d="M453.1,366c-0.3,9.4-7.2,17.3-16.7,18c-8.4,0.7-19.4-6.1-19.4-15.5c-1.8,2.4-3.7,4.8-5.5,7.2       c15.4-5.9,30.8-11.7,46.1-17.6c-2.8-1.1-5.6-2.3-8.5-3.4C451.7,358.3,453,361.7,453.1,366c0.3,9.7,15.3,9.7,15,0       c-0.2-6.8-2-13.2-5.9-18.8c-1.8-2.6-5.2-4.7-8.5-3.4c-15.4,5.9-30.8,11.7-46.1,17.6c-3.2,1.2-5.5,3.7-5.5,7.2       c0,17.3,16.9,30.1,33,30.6c18.3,0.5,32.6-15.5,33.1-33.1C468.4,356.3,453.4,356.3,453.1,366z"/></g></g><g><path d="M503.2,332.9l-15.1,5.7l-5.1,1.9L455.7,351l-46.1,17.6v0l-32.4,12.3l-2.3,0.9l-14.8,5.6      c-11.6-26-7.9-56.2,9.6-78.6c17.5-22.4,46-33.2,74-28.1c18.7,3.4,35.1,13.5,46.5,28v0C496,315.7,500.4,323.9,503.2,332.9z" fill="#6FCCDD"/><g><path d="M501.2,325.7c-31.2,11.8-62.4,23.7-93.7,35.6c-3.2,1.2-5.5,3.7-5.5,7.2c0,0,0,0,0,0c1.8-2.4,3.7-4.8,5.5-7.2       c-16.5,6.3-32.9,12.5-49.4,18.8c2.8,1.1,5.6,2.3,8.5,3.4c-13.9-31.9-1-69.5,28.6-87.2c30-17.9,68.3-9.1,89.8,17.5       c-0.7-1.8-1.5-3.5-2.2-5.3c0,4.4,4.7,8.7,6.8,12.3c2.7,4.4,4.7,9.2,6.3,14.1c3,9.1,17.5,5.2,14.5-4       c-3.1-9.5-7.6-18.3-13.7-26.2c0.3,1.3,0.7,2.5,1,3.8c0-4.4-4.4-8.1-7.2-11.1c-3.6-3.8-7.7-7.1-11.9-10.2       c-8.4-6.2-18.2-10.4-28.3-13c-20.2-5.2-41.8-2-60.2,7.6c-18.8,9.8-32.7,27.2-39.8,46.9c-7.3,20.3-5.3,42.7,3.2,62.3       c1.2,2.8,5.6,4.5,8.5,3.4c16.5-6.3,32.9-12.5,49.4-18.8c3.2-1.2,5.5-3.7,5.5-7.2c0,0,0,0,0,0c-1.8,2.4-3.7,4.8-5.5,7.2       c31.2-11.9,62.4-23.8,93.7-35.6C514.2,336.8,510.3,322.3,501.2,325.7z"/></g></g></g><g><path d="M245.2,254.4c0,8-3.2,15.2-8.4,20.4c-5.2,5.2-12.4,8.4-20.4,8.4H90.3c-15.9,0-28.8-12.9-28.8-28.8     c0-8,3.2-15.2,8.4-20.4c5.2-5.2,12.4-8.4,20.4-8.4h126.1C232.3,225.6,245.2,238.5,245.2,254.4z" fill="#69BD45"/><g><path d="M237.7,254.4c-0.3,11.7-9.4,21.3-21.3,21.3c-2.1,0-4.3,0-6.4,0c-12.7,0-25.3,0-38,0c-26.6,0-53.2,0-79.8,0      c-5.3,0-10-1.1-14.6-4.1c-9.2-6.1-10.8-18.9-5.8-28c6.2-11.3,18.2-10.6,29.1-10.6c29.7,0,59.4,0,89,0c8.2,0,16.3,0,24.5,0      C227,233.1,237.4,241.3,237.7,254.4c0.2,9.7,15.2,9.7,15,0c-0.5-20.5-16.8-36.3-37.3-36.3c-9.6,0-19.2,0-28.8,0      c-29.3,0-58.6,0-87.9,0c-2.7,0-5.5,0-8.2,0c-10.7,0-20.9,4.7-27.9,12.8c-17.5,20.4-6.5,52,18.9,58.7c8.1,2.2,17.7,1.1,25.9,1.1      c15,0,29.9,0,44.9,0c18.5,0,37.1,0,55.6,0c4.5,0,9.1,0.2,13.6-0.4c18-2.4,30.7-18.1,31.2-35.9C253,244.8,238,244.8,237.7,254.4z      "/></g></g></g><g><g><path d="M284.6,335.8c-13.9,0-27.7,0-41.6,0c-9.7,0-9.7,15,0,15c13.9,0,27.7,0,41.6,0C294.3,350.8,294.3,335.8,284.6,335.8     L284.6,335.8z"/></g></g></g><g><path d="M183.9,332.3V345c0,9.7-7.8,17.5-17.5,17.5h-63.9c-9.7,0-17.5-7.8-17.5-17.5v-12.7   c0-9.7,7.8-17.5,17.5-17.5h63.9C176,314.8,183.9,322.6,183.9,332.3z" fill="#FBB03B"/><g><path d="M176.4,332.3c0,5.5,1.3,12.8-1.4,17.8c-2.7,5-8,5-12.8,5c-14.7,0-29.3,0-44,0c-5,0-10,0-15,0c-6.8,0-10.7-4.8-10.7-11.3    c0-6.1-1.7-15.2,3.9-19.4c3.6-2.7,8.4-2.1,12.6-2.1c13.9,0,27.8,0,41.7,0C159.4,322.3,175.9,319.3,176.4,332.3    c0.4,9.6,15.4,9.7,15,0c-0.5-12.7-9.4-23.3-22.3-24.8c-3.9-0.5-8-0.2-11.9-0.2c-15.1,0-30.3,0-45.4,0c-4,0-8-0.2-11.9,0.2    C86.9,309,78,319.6,77.5,332.3c-0.2,6.4-0.6,13.8,1.1,20C81.5,362.8,92,370,102.7,370c18.1,0,36.3,0,54.4,0c9.1,0,18,0.4,25.5-6    c9.7-8.4,8.8-20.1,8.8-31.7C191.4,322.6,176.4,322.6,176.4,332.3z"/></g></g></svg>